<mxfile host="app.diagrams.net" agent="Mozilla/5.0 (Windows NT 10.0; Win64; x64) AppleWebKit/537.36 (KHTML, like Gecko) Chrome/139.0.0.0 Safari/537.36" version="28.2.0">
  <diagram name="Page-1" id="0Ct_4HmDfDPNk0Wp0GtH">
    <mxGraphModel dx="1246" dy="627" grid="1" gridSize="10" guides="1" tooltips="1" connect="1" arrows="1" fold="1" page="1" pageScale="1" pageWidth="827" pageHeight="1169" math="0" shadow="0">
      <root>
        <mxCell id="0" />
        <mxCell id="1" parent="0" />
        <mxCell id="97fQyQTaonyOlGrV8wAW-3" value="&lt;font style=&quot;color: rgb(0, 102, 0);&quot;&gt;Earth Observation Datasets&lt;/font&gt;" style="rounded=1;whiteSpace=wrap;html=1;fontStyle=1;fontSize=17;fillColor=#ffe6cc;strokeColor=light-dark(#006600,#996500);container=0;" vertex="1" parent="1">
          <mxGeometry x="263.5" y="120" width="306" height="41.14285714285714" as="geometry" />
        </mxCell>
        <mxCell id="97fQyQTaonyOlGrV8wAW-4" value="&lt;font style=&quot;font-size: 17px; color: rgb(0, 102, 0);&quot;&gt;Digital Elevation Model&lt;/font&gt;" style="rounded=1;whiteSpace=wrap;html=1;fillColor=#ffe6cc;strokeColor=#006600;fontStyle=1;container=0;" vertex="1" parent="1">
          <mxGeometry x="131.5" y="192" width="230" height="41.14285714285714" as="geometry" />
        </mxCell>
        <mxCell id="97fQyQTaonyOlGrV8wAW-5" value="&lt;font style=&quot;font-size: 17px; color: rgb(0, 102, 0);&quot;&gt;&lt;b&gt;Landsat 8 OLI (2024)&lt;/b&gt;&lt;/font&gt;" style="rounded=1;whiteSpace=wrap;html=1;fillColor=#ffe6cc;strokeColor=light-dark(#006600,#996500);container=0;" vertex="1" parent="1">
          <mxGeometry x="476.5" y="192" width="190" height="41.14285714285714" as="geometry" />
        </mxCell>
        <mxCell id="97fQyQTaonyOlGrV8wAW-6" value="&lt;font style=&quot;font-size: 17px; color: rgb(0, 102, 0);&quot;&gt;Preprocessing&amp;nbsp;&lt;/font&gt;" style="rounded=1;whiteSpace=wrap;html=1;fillColor=#ffe6cc;strokeColor=#006600;fontStyle=1;container=0;" vertex="1" parent="1">
          <mxGeometry x="289.5" y="274.2857142857143" width="280" height="41.14285714285714" as="geometry" />
        </mxCell>
        <mxCell id="97fQyQTaonyOlGrV8wAW-7" value="&lt;font style=&quot;font-size: 17px; color: rgb(0, 102, 0);&quot;&gt;Biophysical variables&lt;/font&gt;" style="rounded=1;whiteSpace=wrap;html=1;fillColor=#ffe6cc;strokeColor=#006600;fontStyle=1;container=0;" vertex="1" parent="1">
          <mxGeometry x="289.5" y="356.57142857142856" width="277" height="41.14285714285714" as="geometry" />
        </mxCell>
        <mxCell id="97fQyQTaonyOlGrV8wAW-9" value="&lt;font style=&quot;font-size: 17px; color: rgb(0, 102, 0);&quot;&gt;Literature Review and field observation&lt;/font&gt;" style="rounded=1;whiteSpace=wrap;html=1;fillColor=#ffe6cc;strokeColor=#006600;fontStyle=1;container=0;" vertex="1" parent="1">
          <mxGeometry x="86.5" y="294.85714285714283" width="132" height="113.14285714285714" as="geometry" />
        </mxCell>
        <mxCell id="97fQyQTaonyOlGrV8wAW-52" style="edgeStyle=orthogonalEdgeStyle;rounded=0;orthogonalLoop=1;jettySize=auto;html=1;exitX=0;exitY=0.5;exitDx=0;exitDy=0;" edge="1" parent="1" source="97fQyQTaonyOlGrV8wAW-15">
          <mxGeometry relative="1" as="geometry">
            <mxPoint x="569.9999999999998" y="371.57142857142867" as="targetPoint" />
          </mxGeometry>
        </mxCell>
        <mxCell id="97fQyQTaonyOlGrV8wAW-15" value="&lt;font style=&quot;font-size: 17px; color: rgb(0, 102, 0);&quot;&gt;Field soil sampling&lt;/font&gt;" style="rounded=1;whiteSpace=wrap;html=1;fillColor=#ffe6cc;strokeColor=#006600;fontStyle=1;container=0;" vertex="1" parent="1">
          <mxGeometry x="628" y="336.0028571428571" width="100" height="72" as="geometry" />
        </mxCell>
        <mxCell id="97fQyQTaonyOlGrV8wAW-16" value="&lt;font style=&quot;font-size: 17px; color: rgb(0, 102, 0);&quot;&gt;Expert Decision&amp;nbsp;&lt;/font&gt;" style="rounded=1;whiteSpace=wrap;html=1;fillColor=#ffe6cc;strokeColor=#006600;fontStyle=1;container=0;" vertex="1" parent="1">
          <mxGeometry x="289.5" y="430" width="270.5" height="40" as="geometry" />
        </mxCell>
        <mxCell id="97fQyQTaonyOlGrV8wAW-56" style="edgeStyle=orthogonalEdgeStyle;rounded=0;orthogonalLoop=1;jettySize=auto;html=1;exitX=1;exitY=0.5;exitDx=0;exitDy=0;entryX=0;entryY=0.5;entryDx=0;entryDy=0;" edge="1" parent="1" source="97fQyQTaonyOlGrV8wAW-21" target="97fQyQTaonyOlGrV8wAW-28">
          <mxGeometry relative="1" as="geometry" />
        </mxCell>
        <mxCell id="97fQyQTaonyOlGrV8wAW-21" value="&lt;font style=&quot;font-size: 17px; color: rgb(0, 102, 0);&quot;&gt;Hybrid MCDM&lt;/font&gt;" style="rounded=1;whiteSpace=wrap;html=1;fillColor=#ffe6cc;strokeColor=#006600;fontStyle=1;container=0;" vertex="1" parent="1">
          <mxGeometry x="284.5" y="510" width="179.5" height="51.43" as="geometry" />
        </mxCell>
        <mxCell id="97fQyQTaonyOlGrV8wAW-27" style="edgeStyle=orthogonalEdgeStyle;rounded=0;orthogonalLoop=1;jettySize=auto;html=1;exitX=0.5;exitY=1;exitDx=0;exitDy=0;entryX=1;entryY=0.75;entryDx=0;entryDy=0;" edge="1" parent="1" source="97fQyQTaonyOlGrV8wAW-28" target="97fQyQTaonyOlGrV8wAW-29">
          <mxGeometry relative="1" as="geometry" />
        </mxCell>
        <mxCell id="97fQyQTaonyOlGrV8wAW-28" value="&lt;font style=&quot;font-size: 17px; color: rgb(0, 102, 0);&quot;&gt;Prioritization of Sub-watershed&amp;nbsp;&lt;/font&gt;" style="rounded=1;whiteSpace=wrap;html=1;fillColor=#ffe6cc;strokeColor=light-dark(#1f1f1e, #996500);fontStyle=1;container=0;" vertex="1" parent="1">
          <mxGeometry x="516.5" y="509.9971428571429" width="200" height="51.42857142857142" as="geometry" />
        </mxCell>
        <mxCell id="97fQyQTaonyOlGrV8wAW-29" value="&lt;font style=&quot;font-size: 17px; color: rgb(0, 102, 0);&quot;&gt;Validation&lt;/font&gt;" style="rounded=1;whiteSpace=wrap;html=1;fillColor=#ffe6cc;strokeColor=light-dark(#1f1f1e, #996500);fontStyle=1;container=0;" vertex="1" parent="1">
          <mxGeometry x="326.5" y="594.4257142857142" width="160" height="51.42857142857142" as="geometry" />
        </mxCell>
        <mxCell id="97fQyQTaonyOlGrV8wAW-30" style="edgeStyle=orthogonalEdgeStyle;rounded=0;orthogonalLoop=1;jettySize=auto;html=1;exitX=1;exitY=0.5;exitDx=0;exitDy=0;entryX=0;entryY=0.5;entryDx=0;entryDy=0;" edge="1" parent="1" source="97fQyQTaonyOlGrV8wAW-31" target="97fQyQTaonyOlGrV8wAW-29">
          <mxGeometry relative="1" as="geometry" />
        </mxCell>
        <mxCell id="97fQyQTaonyOlGrV8wAW-31" value="&lt;font color=&quot;#006600&quot;&gt;&lt;span style=&quot;font-size: 17px;&quot;&gt;Observed Erosion spot&lt;/span&gt;&lt;/font&gt;" style="rounded=1;whiteSpace=wrap;html=1;fillColor=#ffe6cc;strokeColor=light-dark(#1f1f1e, #996500);fontStyle=1;container=0;" vertex="1" parent="1">
          <mxGeometry x="90" y="594.43" width="180" height="51.43" as="geometry" />
        </mxCell>
        <mxCell id="97fQyQTaonyOlGrV8wAW-32" style="edgeStyle=orthogonalEdgeStyle;rounded=0;orthogonalLoop=1;jettySize=auto;html=1;exitX=0;exitY=0.25;exitDx=0;exitDy=0;entryX=0.335;entryY=0.025;entryDx=0;entryDy=0;entryPerimeter=0;" edge="1" parent="1" source="97fQyQTaonyOlGrV8wAW-3" target="97fQyQTaonyOlGrV8wAW-4">
          <mxGeometry relative="1" as="geometry" />
        </mxCell>
        <mxCell id="97fQyQTaonyOlGrV8wAW-33" style="edgeStyle=orthogonalEdgeStyle;rounded=0;orthogonalLoop=1;jettySize=auto;html=1;exitX=1;exitY=0.5;exitDx=0;exitDy=0;entryX=0.721;entryY=-0.05;entryDx=0;entryDy=0;entryPerimeter=0;" edge="1" parent="1" source="97fQyQTaonyOlGrV8wAW-3" target="97fQyQTaonyOlGrV8wAW-5">
          <mxGeometry relative="1" as="geometry" />
        </mxCell>
        <mxCell id="97fQyQTaonyOlGrV8wAW-34" value="" style="shape=partialRectangle;whiteSpace=wrap;html=1;bottom=1;right=1;left=1;top=0;fillColor=none;routingCenterX=-0.5;container=0;" vertex="1" parent="1">
          <mxGeometry x="263.5" y="233.14285714285714" width="303" height="20.57142857142857" as="geometry" />
        </mxCell>
        <mxCell id="97fQyQTaonyOlGrV8wAW-35" style="edgeStyle=orthogonalEdgeStyle;rounded=0;orthogonalLoop=1;jettySize=auto;html=1;exitX=0.5;exitY=1;exitDx=0;exitDy=0;entryX=0.461;entryY=-0.05;entryDx=0;entryDy=0;entryPerimeter=0;" edge="1" parent="1" source="97fQyQTaonyOlGrV8wAW-34" target="97fQyQTaonyOlGrV8wAW-6">
          <mxGeometry relative="1" as="geometry" />
        </mxCell>
        <mxCell id="97fQyQTaonyOlGrV8wAW-50" value="" style="endArrow=classic;html=1;rounded=0;exitX=0.451;exitY=1;exitDx=0;exitDy=0;exitPerimeter=0;" edge="1" parent="1">
          <mxGeometry width="50" height="50" relative="1" as="geometry">
            <mxPoint x="466.57" y="315.42857142857144" as="sourcePoint" />
            <mxPoint x="466.5" y="356.57142857142856" as="targetPoint" />
          </mxGeometry>
        </mxCell>
        <mxCell id="97fQyQTaonyOlGrV8wAW-51" value="" style="endArrow=classic;html=1;rounded=0;" edge="1" parent="1">
          <mxGeometry width="50" height="50" relative="1" as="geometry">
            <mxPoint x="219.5" y="377.1385714285714" as="sourcePoint" />
            <mxPoint x="289.5" y="377.1385714285714" as="targetPoint" />
          </mxGeometry>
        </mxCell>
        <mxCell id="97fQyQTaonyOlGrV8wAW-53" style="edgeStyle=orthogonalEdgeStyle;rounded=0;orthogonalLoop=1;jettySize=auto;html=1;exitX=0.5;exitY=1;exitDx=0;exitDy=0;entryX=0.539;entryY=0.075;entryDx=0;entryDy=0;entryPerimeter=0;" edge="1" parent="1" source="97fQyQTaonyOlGrV8wAW-7" target="97fQyQTaonyOlGrV8wAW-16">
          <mxGeometry relative="1" as="geometry" />
        </mxCell>
        <mxCell id="97fQyQTaonyOlGrV8wAW-55" style="edgeStyle=orthogonalEdgeStyle;rounded=0;orthogonalLoop=1;jettySize=auto;html=1;exitX=0.25;exitY=1;exitDx=0;exitDy=0;entryX=0.643;entryY=0;entryDx=0;entryDy=0;entryPerimeter=0;" edge="1" parent="1" source="97fQyQTaonyOlGrV8wAW-16" target="97fQyQTaonyOlGrV8wAW-21">
          <mxGeometry relative="1" as="geometry" />
        </mxCell>
      </root>
    </mxGraphModel>
  </diagram>
</mxfile>
